<?xml version="1.0" encoding="UTF-8"?>
<!-- Generator: Adobe Illustrator 22.0.1, SVG Export Plug-In . SVG Version: 6.00 Build 0) -->
<svg xmlns:cc="http://creativecommons.org/ns#" xmlns:dc="http://purl.org/dc/elements/1.1/" xmlns:inkscape="http://www.inkscape.org/namespaces/inkscape" xmlns:rdf="http://www.w3.org/1999/02/22-rdf-syntax-ns#" xmlns:sodipodi="http://sodipodi.sourceforge.net/DTD/sodipodi-0.dtd" xmlns:svg="http://www.w3.org/2000/svg" xmlns="http://www.w3.org/2000/svg" xmlns:xlink="http://www.w3.org/1999/xlink" id="svg2" inkscape:version="0.91 r13725" sodipodi:docname="Courrier_2.svg" x="0px" y="0px" viewBox="0 0 550 180" style="enable-background:new 0 0 550 180;" xml:space="preserve"> <style type="text/css"> .st0{fill:#4AAAE0;} .st1{fill:#F49834;} </style> <g id="g10" transform="matrix(1.25,0,0,-1.25,-40.916186,305.53211)" inkscape:groupmode="layer" inkscape:label="LOGOS-MAARCH-de‚Äö√†√∂‚àö√¢‚Äö√†√∂‚àö√±clinaisons"> <g id="g4295" transform="matrix(0.99559634,0,0,1.0235937,0.21020049,-1.8739484)"> <g id="g4153" transform="matrix(1.5274519,0,0,1.5274519,3.1610964,31.78496)"> <path id="path206" inkscape:connector-curvature="0" class="st0" d="M139.2,91.1L125,116.4v-32c0-1.2-1-2.1-2.2-2.1 s-2.2,1-2.2,2.1v40.5c0,1.2,1,2.1,2.2,2.1c1,0,1.7-0.6,2-1.2l16.4-29.4l16.5,29.4c0.3,0.5,0.8,1.2,2,1.2s2.2-1,2.2-2.1V84.4 c0-1.2-1-2.1-2.2-2.1s-2.2,1-2.2,2.1v31.9L143.2,91c-0.5-0.8-1.2-1.2-2-1.2C140.5,89.9,139.6,90.2,139.2,91.1"/> <path id="path210" inkscape:connector-curvature="0" class="st0" d="M189.1,94.1v2.7h-9.6c-4.4,0-7.5-1.8-7.5-5.5 c0-3.4,2.4-5.5,7.7-5.5C184.6,85.7,189.1,88.5,189.1,94.1 M173.2,106c-0.7-0.7-1.2-0.9-1.8-0.9c-1.1,0-2,0.8-2,1.9 c0,0.5,0.1,0.8,0.3,1.1c1.9,2.9,5.6,5.1,11.3,5.1c7.9,0,12.2-4.4,12.2-11V84.3c0-1.1-1-2-2.1-2c-1.2,0-2.1,0.9-2.1,2v2.3 c-1.7-3.1-5.6-4.7-9.7-4.7c-7.2,0-11.7,3.3-11.7,9.3c0,5.7,4.5,9.2,11.9,9.2h9.6v1.8c0,4.4-3.1,7.1-8,7.1 C177.5,109.3,175.3,108.3,173.2,106"/> <path id="path214" inkscape:connector-curvature="0" class="st0" d="M218.8,94.1v2.7h-9.6c-4.4,0-7.5-1.8-7.5-5.5 c0-3.4,2.4-5.5,7.7-5.5C214.2,85.7,218.8,88.5,218.8,94.1 M202.9,106c-0.7-0.7-1.2-0.9-1.8-0.9c-1.1,0-2,0.8-2,1.9 c0,0.5,0.1,0.8,0.3,1.1c1.9,2.9,5.6,5.1,11.3,5.1c7.9,0,12.2-4.4,12.2-11V84.3c0-1.1-1-2-2.1-2c-1.2,0-2.1,0.9-2.1,2v2.3 c-1.7-3.1-5.6-4.7-9.7-4.7c-7.2,0-11.7,3.3-11.7,9.3c0,5.7,4.5,9.2,11.9,9.2h9.6v1.8c0,4.4-3.1,7.1-8,7.1 C207.2,109.3,205,108.3,202.9,106"/> <path id="path218" inkscape:connector-curvature="0" class="st0" d="M233.4,107.9c1.4,3,4.8,5.2,9.4,5.2c1.2,0,2.1-0.9,2.1-2 s-1-2-2.1-2c-6.2,0-9.4-4.2-9.4-10.1V84.4c0-1.2-0.9-2.1-2.2-2.1c-1.2,0-2.2,0.9-2.2,2.1v26.4c0,1.2,1,2.1,2.2,2.1 s2.2-0.9,2.2-2.1V107.9L233.4,107.9z"/> <path id="path222" inkscape:connector-curvature="0" class="st0" d="M259.6,113.2c6,0,9.4-3.1,10.5-4.5c0.3-0.5,0.5-0.8,0.5-1.2 c0-1.1-0.9-1.9-2-1.9c-0.7,0-1.2,0.3-1.6,0.8c-1,1.1-2.8,3.1-7.3,3.1c-6.2,0-9.6-3.8-9.6-11.8c0-8.1,3.3-11.9,9.6-11.9 c3.9,0,6.3,1.7,7.9,2.8c0.5,0.3,0.8,0.5,1.3,0.5c1.1,0,2-0.8,2-1.9c0-0.6-0.2-1-0.9-1.6c-1.5-1.2-4.8-3.5-10.2-3.5 c-8.8,0-14,5-14,15.6C245.6,108.3,250.9,113.2,259.6,113.2"/> <path id="path226" inkscape:connector-curvature="0" class="st0" d="M300.8,101.7V84.4c0-1.2-0.9-2.1-2.2-2.1 c-1.2,0-2.2,0.9-2.2,2.1v16.5c0,5.1-1.6,8.6-8.1,8.6c-6.7,0-9-3.9-9-9.1v-16c0-1.2-0.9-2.1-2.2-2.1c-1.2,0-2.2,0.9-2.2,2.1V127 c0,1.2,0.9,2.1,2.2,2.1c1.2,0,2.2-0.9,2.2-2.1v-18.3c1.3,2.5,4.6,4.5,9,4.5C298.7,113.2,300.8,107.2,300.8,101.7"/> </g> <g id="g4161" transform="matrix(1.5592875,0,0,1.5592875,-140.82421,-94.632417)"> <path id="path238" inkscape:connector-curvature="0" class="st1" d="M302.6,141.7c0,6.4,3.2,9.4,8.4,9.4c2.5,0,4.8-1.1,6-2.8 c0.1-0.2,0.2-0.4,0.2-0.6c0-0.5-0.4-0.9-0.9-0.9c-0.2,0-0.5,0.1-0.7,0.3c-0.9,1.3-2.7,2.3-4.7,2.3c-4.1,0-6.5-2.5-6.5-7.8 c0-5.6,2.4-7.7,6.5-7.7c1.8,0,3.6,0.7,4.7,2.2c0.2,0.3,0.5,0.3,0.7,0.3c0.5,0,0.9-0.4,0.9-0.9c0-0.2-0.1-0.3-0.2-0.5 c-1.2-1.7-3.6-2.8-6.1-2.8C305.8,132.3,302.6,135.1,302.6,141.7"/> <path id="path242" inkscape:connector-curvature="0" class="st1" d="M328.9,138.8c0,3.4-1.4,4.9-3.9,4.9s-3.9-1.5-3.9-4.9 s1.4-4.9,3.9-4.9C327.4,133.9,328.9,135.4,328.9,138.8 M330.6,138.8c0-4.4-2.1-6.5-5.6-6.5s-5.6,2.1-5.6,6.5 c0,4.4,2.2,6.4,5.6,6.4C328.5,145.2,330.6,143.2,330.6,138.8"/> <path id="path246" inkscape:connector-curvature="0" class="st1" d="M334.8,144.2v-7c0-1.7,0.6-3.2,3.3-3.2 c2.7,0,3.3,1.5,3.3,3.2v7c0,0.5,0.4,0.9,0.9,0.9s0.8-0.4,0.8-0.9v-7c0-2.5-0.8-4.9-5-4.9c-4.1,0-5,2.3-5,4.9v7 c0,0.5,0.4,0.9,0.9,0.9C334.4,145.1,334.8,144.7,334.8,144.2"/> <path id="path250" inkscape:connector-curvature="0" class="st1" d="M348,143c0.5,1.2,1.9,2.1,3.7,2.1c0.5,0,0.8-0.4,0.8-0.8 c0-0.5-0.4-0.8-0.8-0.8c-2.5,0-3.7-1.7-3.7-4.2v-6c0-0.5-0.4-0.9-0.9-0.9s-0.9,0.4-0.9,0.9v10.9c0,0.5,0.4,0.9,0.9,0.9 s0.9-0.4,0.9-0.9V143L348,143z"/> <path id="path254" inkscape:connector-curvature="0" class="st1" d="M356.2,143c0.5,1.2,1.9,2.1,3.7,2.1c0.5,0,0.8-0.4,0.8-0.8 c0-0.5-0.4-0.8-0.8-0.8c-2.5,0-3.7-1.7-3.7-4.2v-6c0-0.5-0.4-0.9-0.9-0.9s-0.9,0.4-0.9,0.9v10.9c0,0.5,0.4,0.9,0.9,0.9 s0.9-0.4,0.9-0.9V143L356.2,143z"/> <path id="path258" inkscape:connector-curvature="0" class="st1" d="M364.5,133.3c0-0.5-0.4-0.9-0.9-0.9s-0.9,0.4-0.9,0.9v10.9 c0,0.5,0.4,0.9,0.9,0.9s0.9-0.4,0.9-0.9V133.3z M362.6,148.6c0,0.8,0.4,1.1,1,1.1s1-0.3,1-1.1c0-0.6-0.4-1-1-1 S362.6,148,362.6,148.6"/> <path id="path262" inkscape:connector-curvature="0" class="st1" d="M372.7,143.7c-2.3,0-3.6-1.5-3.8-3.9h7.2 C376.1,141.7,375.5,143.7,372.7,143.7 M372.7,145.2c4.3,0,5.1-3.4,5.1-5.2c0-0.8,0-1.7-1.1-1.7h-7.8c0-2.7,1.5-4.4,4.1-4.4 c1.6,0,2.5,0.6,3.2,1.2c0.2,0.1,0.3,0.2,0.5,0.2c0.4,0,0.8-0.3,0.8-0.8c0-0.3-0.1-0.5-0.3-0.6c-0.4-0.4-1.8-1.5-4.2-1.5 c-3.6,0-5.8,2-5.8,6.5C367.2,142.9,369.2,145.2,372.7,145.2"/> <path id="path266" inkscape:connector-curvature="0" class="st1" d="M382.2,143c0.5,1.2,1.9,2.1,3.7,2.1c0.5,0,0.8-0.4,0.8-0.8 c0-0.5-0.4-0.8-0.8-0.8c-2.5,0-3.7-1.7-3.7-4.2v-6c0-0.5-0.4-0.9-0.9-0.9s-0.9,0.4-0.9,0.9v10.9c0,0.5,0.4,0.9,0.9,0.9 s0.9-0.4,0.9-0.9V143L382.2,143z"/> </g> <g id="g4228" transform="matrix(1.4609441,0,0,1.4609441,-118.00664,-77.986946)"> <path id="path230" inkscape:connector-curvature="0" class="st1" d="M156.9,150.5l-34.7,34.9v-42.3h72.6v-10.8h-83.4v64l7.5,8 l38.2-38.4L156.9,150.5L156.9,150.5z"/> <path id="path234" inkscape:connector-curvature="0" class="st0" d="M195.2,204.9v-16.2l-38.5-38.5l-7.6,8L195.2,204.9 L195.2,204.9z"/> </g> </g> </g> </svg>